<?xml version="1.0" encoding="UTF-8" standalone="no"?>
<!-- Created with Inkscape (http://www.inkscape.org/) -->

<svg
   xmlns:dc="http://purl.org/dc/elements/1.1/"
   xmlns:cc="http://creativecommons.org/ns#"
   xmlns:rdf="http://www.w3.org/1999/02/22-rdf-syntax-ns#"
   xmlns:svg="http://www.w3.org/2000/svg"
   xmlns="http://www.w3.org/2000/svg"
   xmlns:sodipodi="http://sodipodi.sourceforge.net/DTD/sodipodi-0.dtd"
   xmlns:inkscape="http://www.inkscape.org/namespaces/inkscape"
   width="119.81853mm"
   height="128.07849mm"
   viewBox="0 0 119.81853 128.07849"
   version="1.1"
   id="svg16"
   inkscape:version="0.92.1 r15371"
   sodipodi:docname="reseth.svg">
  <defs
     id="defs10" />
  <sodipodi:namedview
     id="base"
     pagecolor="#ffffff"
     bordercolor="#666666"
     borderopacity="1.0"
     inkscape:pageopacity="0.0"
     inkscape:pageshadow="2"
     inkscape:zoom="0.7"
     inkscape:cx="135.67643"
     inkscape:cy="212.54302"
     inkscape:document-units="mm"
     inkscape:current-layer="layer3"
     showgrid="false"
     inkscape:measure-start="677.857,817.143"
     inkscape:measure-end="182.857,541.429"
     inkscape:window-width="1920"
     inkscape:window-height="1027"
     inkscape:window-x="-8"
     inkscape:window-y="-8"
     inkscape:window-maximized="1"
     fit-margin-top="0"
     fit-margin-left="0"
     fit-margin-right="0"
     fit-margin-bottom="0" />
  <metadata
     id="metadata13">
    <rdf:RDF>
      <cc:Work
         rdf:about="">
        <dc:format>image/svg+xml</dc:format>
        <dc:type
           rdf:resource="http://purl.org/dc/dcmitype/StillImage" />
        <dc:title></dc:title>
      </cc:Work>
    </rdf:RDF>
  </metadata>
  <g
     inkscape:label="Calque 1"
     inkscape:groupmode="layer"
     id="layer1"
     style="display:none"
     transform="translate(-40.443525,-62.087682)">
    <path
       style="fill:none;stroke:#000000;stroke-width:0.26458332px;stroke-linecap:butt;stroke-linejoin:miter;stroke-opacity:1"
       d="M 40.443451,70.025299 160.2619,189.84375 H 40.443451 L 160.2619,70.025299 Z"
       id="path4524"
       inkscape:connector-curvature="0" />
    <path
       style="fill:none;stroke:#000000;stroke-width:0.26458332px;stroke-linecap:butt;stroke-linejoin:miter;stroke-opacity:1"
       d="M 52.727677,193.05654 V 65.111605 L 51.40476,82.309522 h 100.73065 l -4.15773,-2.456844 V 182.6622 l 2.45684,-4.91369 H 42.900298 Z"
       id="path4528"
       inkscape:connector-curvature="0" />
    <path
       style="fill:none;stroke:#000000;stroke-width:0.26458332px;stroke-linecap:butt;stroke-linejoin:miter;stroke-opacity:1"
       d="M 100.30543,129.88727 132.08328,74.846428 Z"
       id="path4534"
       inkscape:connector-curvature="0" />
    <path
       style="fill:none;stroke:#000000;stroke-width:0.26458332px;stroke-linecap:butt;stroke-linejoin:miter;stroke-opacity:1"
       d="M 100.30543,129.88727 67.853138,73.678255 Z"
       id="path4536"
       inkscape:connector-curvature="0" />
    <path
       style="fill:#ff9e9e;fill-opacity:1;stroke:#000000;stroke-width:0.26458332px;stroke-linecap:butt;stroke-linejoin:miter;stroke-opacity:1"
       d="m 130.77976,77.065102 -8.18332,14.173925 H 77.957589 L 67.441619,73.024832 103.23475,64.213911 Z"
       id="path4538"
       inkscape:connector-curvature="0" />
    <path
       style="display:inline;fill:#d00000;fill-opacity:1;stroke:none;stroke-width:0.26458332px;stroke-linecap:butt;stroke-linejoin:miter;stroke-opacity:1"
       d="m 77.959334,61.217085 -7.79576,3.047434 0.66146,9.732886 -5.5279,-3.96875 7.67764,-12.402344 z"
       id="path4577-0"
       inkscape:connector-curvature="0" />
    <path
       style="display:inline;fill:#d00000;fill-opacity:1;stroke-width:0.26458332"
       d="m 130.19659,78.396545 -6.09782,10.562148 a 47.657017,47.657017 0 0 1 23.9665,41.306527 47.657017,47.657017 0 0 1 -47.65705,47.65704 47.657017,47.657017 0 0 1 -47.657026,-47.65704 47.657017,47.657017 0 0 1 23.77942,-41.175786 l -6.14588,-10.644311 a 59.909226,59.909226 0 0 0 -29.94132,51.811827 59.909226,59.909226 0 0 0 59.909006,59.90901 59.909226,59.909226 0 0 0 59.90952,-59.90901 59.909226,59.909226 0 0 0 -30.06535,-51.860405 z"
       id="path4520-8-0"
       inkscape:connector-curvature="0" />
    <path
       style="fill:none;stroke:#000000;stroke-width:0.26458332px;stroke-linecap:butt;stroke-linejoin:miter;stroke-opacity:1"
       d="M 78.808034,149.02232 H 126.81101 Z"
       id="path4658"
       inkscape:connector-curvature="0" />
  </g>
  <g
     inkscape:groupmode="layer"
     id="layer3"
     inkscape:label="f2"
     style="display:inline"
     transform="translate(-40.443525,-62.087682)">
    <path
       style="display:inline;fill:#d00000;fill-opacity:1;stroke-width:0.99999994"
       d="m 352.5,234.66211 v 208.21484 h 53.21484 V 234.66211 Z m 139.58203,61.64062 -23.04687,39.91993 A 180.12101,180.12101 0 0 1 559.61719,492.3418 180.12101,180.12101 0 0 1 379.49609,672.46289 180.12101,180.12101 0 0 1 199.375,492.3418 180.12101,180.12101 0 0 1 289.25,336.7168 L 266.02148,296.48633 A 226.42857,226.42857 0 0 0 152.85742,492.31055 226.42857,226.42857 0 0 0 379.28516,718.73828 226.42857,226.42857 0 0 0 605.71484,492.31055 226.42857,226.42857 0 0 0 492.08203,296.30273 Z"
       transform="scale(0.26458333)"
       id="path4520-8-0-3"
       inkscape:connector-curvature="0" />
  </g>
  <g
     style="display:none"
     inkscape:label="f3"
     id="g4654"
     inkscape:groupmode="layer"
     transform="translate(-40.443525,-62.087682)">
    <path
       inkscape:connector-curvature="0"
       id="path4650"
       d="m 130.19659,78.396545 -6.09782,10.562148 a 47.657017,47.657017 0 0 1 23.9665,41.306527 47.657017,47.657017 0 0 1 -47.65706,47.65704 47.657017,47.657017 0 0 1 -47.657024,-47.65704 47.657017,47.657017 0 0 1 23.77942,-41.175786 l -6.14588,-10.644311 a 59.909226,59.909226 0 0 0 -29.94132,51.811827 59.909226,59.909226 0 0 0 59.909004,59.90901 59.909226,59.909226 0 0 0 59.90953,-59.90901 59.909226,59.909226 0 0 0 -30.06535,-51.860405 z"
       style="display:inline;fill:#777777;fill-opacity:1;stroke-width:0.26458332" />
    <path
       style="fill:#777777;fill-opacity:1;stroke:none;stroke-width:1.22108507"
       d="M 352.5,234.66211 V 391.86719 A 102.67854,102.67854 0 0 0 276.42773,490.91211 102.67854,102.67854 0 0 0 379.10742,593.5918 102.67854,102.67854 0 0 0 481.78516,490.91211 102.67854,102.67854 0 0 0 405.71484,391.7832 V 234.66211 Z m 22.85742,253.57227 a 37.499996,37.499996 0 0 1 37.5,37.5 37.499996,37.499996 0 0 1 -37.5,37.5 37.499996,37.499996 0 0 1 -37.5,-37.5 37.499996,37.499996 0 0 1 37.5,-37.5 z"
       transform="scale(0.26458333)"
       id="rect4652"
       inkscape:connector-curvature="0" />
  </g>
  <g
     inkscape:groupmode="layer"
     id="layer2"
     inkscape:label="f1"
     style="display:none"
     transform="translate(-40.443525,-62.087682)">
    <path
       style="fill:#777777;fill-opacity:1;stroke-width:0.99999994"
       d="M 254.46484,277.02734 265.27539,295.75 A 226.42857,226.42857 0 0 0 152.85742,491.0918 226.42857,226.42857 0 0 0 379.28516,717.51953 226.42857,226.42857 0 0 0 605.71484,491.0918 226.42857,226.42857 0 0 0 492.08203,295.08398 l -23.04687,39.91993 A 180.12101,180.12101 0 0 1 559.61719,491.12305 180.12101,180.12101 0 0 1 379.49609,671.24414 180.12101,180.12101 0 0 1 199.375,491.12305 180.12101,180.12101 0 0 1 288.49023,335.96094 l 9.55469,16.54883 59.46485,-75.48243 z"
       transform="scale(0.26458333)"
       id="path4520-8"
       inkscape:connector-curvature="0" />
  </g>
</svg>
